<?xml version="1.0" encoding="UTF-8"?>

<svg version="1.2" baseProfile="tiny" width="280mm" height="210mm" viewBox="0 0 28000 21000" preserveAspectRatio="xMidYMid" fill-rule="evenodd" clip-path="url(#presentation_clip_path)" stroke-width="28.222" stroke-linejoin="round" xmlns="http://www.w3.org/2000/svg" xmlns:ooo="http://xml.openoffice.org/svg/export" xmlns:xlink="http://www.w3.org/1999/xlink" xml:space="preserve">
 <defs class="ClipPathGroup">
  <clipPath id="presentation_clip_path" clipPathUnits="userSpaceOnUse">
   <rect x="0" y="0" width="28000" height="21000"/>
  </clipPath>
 </defs>
 <defs class="TextShapeIndex">
  <g ooo:slide="id1" ooo:id-list="id3 id4 id5 id6 id7 id8 id9 id10 id11 id12 id13 id14"/>
 </defs>
 <defs class="EmbeddedBulletChars">
  <g id="bullet-char-template(57356)" transform="scale(0.00048828125,-0.00048828125)">
   <path d="M 580,1141 L 1163,571 580,0 -4,571 580,1141 Z"/>
  </g>
  <g id="bullet-char-template(57354)" transform="scale(0.00048828125,-0.00048828125)">
   <path d="M 8,1128 L 1137,1128 1137,0 8,0 8,1128 Z"/>
  </g>
  <g id="bullet-char-template(10146)" transform="scale(0.00048828125,-0.00048828125)">
   <path d="M 174,0 L 602,739 174,1481 1456,739 174,0 Z M 1358,739 L 309,1346 659,739 1358,739 Z"/>
  </g>
  <g id="bullet-char-template(10132)" transform="scale(0.00048828125,-0.00048828125)">
   <path d="M 2015,739 L 1276,0 717,0 1260,543 174,543 174,936 1260,936 717,1481 1274,1481 2015,739 Z"/>
  </g>
  <g id="bullet-char-template(10007)" transform="scale(0.00048828125,-0.00048828125)">
   <path d="M 0,-2 C -7,14 -16,27 -25,37 L 356,567 C 262,823 215,952 215,954 215,979 228,992 255,992 264,992 276,990 289,987 310,991 331,999 354,1012 L 381,999 492,748 772,1049 836,1024 860,1049 C 881,1039 901,1025 922,1006 886,937 835,863 770,784 769,783 710,716 594,584 L 774,223 C 774,196 753,168 711,139 L 727,119 C 717,90 699,76 672,76 641,76 570,178 457,381 L 164,-76 C 142,-110 111,-127 72,-127 30,-127 9,-110 8,-76 1,-67 -2,-52 -2,-32 -2,-23 -1,-13 0,-2 Z"/>
  </g>
  <g id="bullet-char-template(10004)" transform="scale(0.00048828125,-0.00048828125)">
   <path d="M 285,-33 C 182,-33 111,30 74,156 52,228 41,333 41,471 41,549 55,616 82,672 116,743 169,778 240,778 293,778 328,747 346,684 L 369,508 C 377,444 397,411 428,410 L 1163,1116 C 1174,1127 1196,1133 1229,1133 1271,1133 1292,1118 1292,1087 L 1292,965 C 1292,929 1282,901 1262,881 L 442,47 C 390,-6 338,-33 285,-33 Z"/>
  </g>
  <g id="bullet-char-template(9679)" transform="scale(0.00048828125,-0.00048828125)">
   <path d="M 813,0 C 632,0 489,54 383,161 276,268 223,411 223,592 223,773 276,916 383,1023 489,1130 632,1184 813,1184 992,1184 1136,1130 1245,1023 1353,916 1407,772 1407,592 1407,412 1353,268 1245,161 1136,54 992,0 813,0 Z"/>
  </g>
  <g id="bullet-char-template(8226)" transform="scale(0.00048828125,-0.00048828125)">
   <path d="M 346,457 C 273,457 209,483 155,535 101,586 74,649 74,723 74,796 101,859 155,911 209,963 273,989 346,989 419,989 480,963 531,910 582,859 608,796 608,723 608,648 583,586 532,535 482,483 420,457 346,457 Z"/>
  </g>
  <g id="bullet-char-template(8211)" transform="scale(0.00048828125,-0.00048828125)">
   <path d="M -4,459 L 1135,459 1135,606 -4,606 -4,459 Z"/>
  </g>
 </defs>
 <defs class="TextEmbeddedBitmaps"/>
 <g>
  <g id="id2" class="Master_Slide">
   <g id="bg-id2" class="Background"/>
   <g id="bo-id2" class="BackgroundObjects"/>
  </g>
 </g>
 <g class="SlideGroup">
  <g>
   <g id="id1" class="Slide" clip-path="url(#presentation_clip_path)">
    <g class="Page">
     <g class="Group">
      <g class="com.sun.star.drawing.ClosedBezierShape">
       <g id="id3">
        <path fill="rgb(197,0,11)" stroke="none" d="M 3386,7620 C 2963,7620 2540,8043 2540,8466 2540,9595 2540,10725 2540,11854 2540,12277 2963,12701 3386,12701 4515,12701 5645,12701 6774,12701 7197,12701 7621,12277 7621,11854 7621,10725 7621,9595 7621,8466 7621,8043 7197,7620 6774,7620 5645,7620 4515,7620 3386,7620 Z M 2540,7620 L 2540,7620 Z M 7621,12701 L 7621,12701 Z"/>
       </g>
      </g>
      <g class="com.sun.star.drawing.ClosedBezierShape">
       <g id="id4">
        <path fill="rgb(255,255,255)" stroke="none" d="M 4645,10697 L 4550,10424 4143,10424 4049,10697 3825,10697 4215,9629 4478,9629 4866,10697 4645,10697 Z M 4347,9794 L 4342,9810 C 4337,9829 4331,9849 4324,9873 4317,9896 4273,10024 4193,10256 L 4500,10256 4395,9949 4362,9846 4347,9794 Z"/>
       </g>
      </g>
      <g class="com.sun.star.drawing.ClosedBezierShape">
       <g id="id5">
        <path fill="rgb(255,255,255)" stroke="none" d="M 5889,9967 C 5889,10036 5873,10097 5842,10151 5810,10205 5765,10247 5707,10277 5649,10306 5579,10321 5499,10321 L 5234,10321 5234,10697 5010,10697 5010,9629 5490,9629 C 5618,9629 5716,9659 5785,9718 5854,9776 5889,9860 5889,9967 Z M 5664,9971 C 5664,9859 5597,9803 5465,9803 L 5234,9803 5234,10149 5471,10149 C 5533,10149 5580,10134 5614,10103 5647,10073 5664,10029 5664,9971 Z"/>
       </g>
      </g>
      <g class="com.sun.star.drawing.ClosedBezierShape">
       <g id="id6">
        <path fill="rgb(255,255,255)" stroke="none" d="M 6045,10697 C 6045,10341 6045,9985 6045,9629 6120,9629 6194,9629 6269,9629 6269,9985 6269,10341 6269,10697 L 6045,10697 Z"/>
       </g>
      </g>
     </g>
     <g class="Group">
      <g class="com.sun.star.drawing.ClosedBezierShape">
       <g id="id7">
        <path fill="rgb(255,149,14)" stroke="none" d="M 21166,7620 C 20743,7620 20320,8043 20320,8466 20320,9680 20320,10894 20320,12108 20320,12531 20743,12954 21166,12954 22295,12954 23425,12954 24554,12954 24977,12954 25401,12531 25401,12108 25401,10894 25401,9680 25401,8466 25401,8043 24977,7620 24554,7620 23425,7620 22295,7620 21166,7620 Z M 20320,7620 L 20320,7620 Z M 25401,12955 L 25401,12955 Z"/>
       </g>
      </g>
      <g class="com.sun.star.drawing.ClosedBezierShape">
       <g id="id8">
        <path fill="rgb(255,255,255)" stroke="none" d="M 21447,10629 C 21570,10629 21655,10568 21703,10445 L 21880,10512 C 21842,10605 21786,10675 21712,10721 21638,10766 21550,10789 21447,10789 21291,10789 21170,10745 21085,10657 21000,10568 20957,10445 20957,10286 20957,10126 20998,10004 21081,9918 21163,9833 21282,9790 21438,9790 21552,9790 21645,9813 21717,9859 21788,9905 21839,9972 21867,10060 L 21688,10109 C 21673,10061 21643,10022 21599,9993 21555,9964 21503,9950 21442,9950 21351,9950 21281,9979 21233,10036 21186,10093 21162,10176 21162,10286 21162,10397 21186,10482 21235,10541 21284,10600 21355,10629 21447,10629 Z"/>
       </g>
      </g>
      <g class="com.sun.star.drawing.ClosedBezierShape">
       <g id="id9">
        <path fill="rgb(255,255,255)" stroke="none" d="M 22016,10776 C 22016,10435 22016,10094 22016,9753 22081,9753 22145,9753 22210,9753 22210,10094 22210,10435 22210,10776 L 22016,10776 Z"/>
       </g>
      </g>
      <g class="com.sun.star.drawing.ClosedBezierShape">
       <g id="id10">
        <path fill="rgb(255,255,255)" stroke="none" d="M 22409,9896 C 22409,9848 22409,9801 22409,9753 22474,9753 22538,9753 22603,9753 22603,9801 22603,9848 22603,9896 L 22409,9896 Z M 22409,10776 C 22409,10527 22409,10279 22409,10030 22474,10030 22538,10030 22603,10030 22603,10279 22603,10527 22603,10776 L 22409,10776 Z"/>
       </g>
      </g>
      <g class="com.sun.star.drawing.ClosedBezierShape">
       <g id="id11">
        <path fill="rgb(255,255,255)" stroke="none" d="M 23106,10789 C 22994,10789 22908,10756 22848,10690 22788,10623 22758,10527 22758,10399 22758,10276 22788,10182 22849,10115 22910,10049 22997,10016 23109,10016 23216,10016 23298,10052 23354,10123 23411,10194 23439,10298 23439,10434 L 23439,10440 22961,10440 C 22961,10513 22974,10567 23001,10604 23028,10641 23066,10660 23116,10660 23184,10660 23227,10630 23245,10571 L 23428,10587 C 23375,10722 23268,10789 23106,10789 Z M 23106,10138 C 23061,10138 23026,10154 23001,10186 22977,10217 22964,10262 22962,10319 L 23252,10319 C 23248,10259 23233,10213 23208,10183 23183,10153 23149,10138 23106,10138 Z"/>
       </g>
      </g>
      <g class="com.sun.star.drawing.ClosedBezierShape">
       <g id="id12">
        <path fill="rgb(255,255,255)" stroke="none" d="M 24068,10775 L 24068,10357 C 24068,10226 24024,10161 23935,10161 23888,10161 23850,10181 23822,10221 23793,10261 23779,10313 23779,10376 L 23779,10775 23585,10775 23585,10197 C 23585,10157 23584,10124 23583,10099 23582,10073 23581,10050 23580,10030 L 23764,10030 C 23766,10039 23767,10062 23770,10100 23772,10138 23773,10164 23773,10178 L 23776,10178 C 23802,10121 23835,10080 23874,10054 23914,10028 23961,10016 24016,10016 24095,10016 24155,10040 24198,10089 24240,10137 24261,10208 24261,10302 L 24261,10775 24068,10775 Z"/>
       </g>
      </g>
      <g class="com.sun.star.drawing.ClosedBezierShape">
       <g id="id13">
        <path fill="rgb(255,255,255)" stroke="none" d="M 24638,10788 C 24581,10788 24537,10772 24506,10741 24475,10710 24460,10663 24460,10601 L 24460,10161 24366,10161 24366,10030 24470,10030 24530,9855 24652,9855 24652,10030 24793,10030 24793,10161 24652,10161 24652,10548 C 24652,10584 24659,10611 24672,10628 24686,10646 24707,10654 24736,10654 24752,10654 24773,10651 24801,10645 L 24801,10764 C 24753,10780 24699,10788 24638,10788 Z"/>
       </g>
      </g>
     </g>
     <g class="com.sun.star.drawing.CustomShape">
      <g id="id14">
       <path fill="rgb(0,132,209)" stroke="none" d="M 8128,10160 L 10454,8890 10454,9525 17486,9525 17486,8890 19813,10160 17486,11431 17486,10795 10454,10795 10454,11431 8128,10160 Z M 8128,8890 L 8128,8890 Z M 19813,11431 L 19813,11431 Z"/>
      </g>
     </g>
    </g>
   </g>
  </g>
 </g>
</svg>