<?xml version="1.0" encoding="UTF-8"?>

<svg version="1.2" baseProfile="tiny" width="280mm" height="210mm" viewBox="0 0 28000 21000" preserveAspectRatio="xMidYMid" fill-rule="evenodd" clip-path="url(#presentation_clip_path)" stroke-width="28.222" stroke-linejoin="round" xmlns="http://www.w3.org/2000/svg" xmlns:ooo="http://xml.openoffice.org/svg/export" xmlns:xlink="http://www.w3.org/1999/xlink" xml:space="preserve">
 <defs class="ClipPathGroup">
  <clipPath id="presentation_clip_path" clipPathUnits="userSpaceOnUse">
   <rect x="0" y="0" width="28000" height="21000"/>
  </clipPath>
 </defs>
 <defs class="TextShapeIndex">
  <g ooo:slide="id1" ooo:id-list="id3 id4 id5 id6 id7 id8 id9 id10 id11 id12 id13 id14 id15 id16 id17 id18 id19 id20 id21 id22 id23"/>
 </defs>
 <defs class="EmbeddedBulletChars">
  <g id="bullet-char-template(57356)" transform="scale(0.00048828125,-0.00048828125)">
   <path d="M 580,1141 L 1163,571 580,0 -4,571 580,1141 Z"/>
  </g>
  <g id="bullet-char-template(57354)" transform="scale(0.00048828125,-0.00048828125)">
   <path d="M 8,1128 L 1137,1128 1137,0 8,0 8,1128 Z"/>
  </g>
  <g id="bullet-char-template(10146)" transform="scale(0.00048828125,-0.00048828125)">
   <path d="M 174,0 L 602,739 174,1481 1456,739 174,0 Z M 1358,739 L 309,1346 659,739 1358,739 Z"/>
  </g>
  <g id="bullet-char-template(10132)" transform="scale(0.00048828125,-0.00048828125)">
   <path d="M 2015,739 L 1276,0 717,0 1260,543 174,543 174,936 1260,936 717,1481 1274,1481 2015,739 Z"/>
  </g>
  <g id="bullet-char-template(10007)" transform="scale(0.00048828125,-0.00048828125)">
   <path d="M 0,-2 C -7,14 -16,27 -25,37 L 356,567 C 262,823 215,952 215,954 215,979 228,992 255,992 264,992 276,990 289,987 310,991 331,999 354,1012 L 381,999 492,748 772,1049 836,1024 860,1049 C 881,1039 901,1025 922,1006 886,937 835,863 770,784 769,783 710,716 594,584 L 774,223 C 774,196 753,168 711,139 L 727,119 C 717,90 699,76 672,76 641,76 570,178 457,381 L 164,-76 C 142,-110 111,-127 72,-127 30,-127 9,-110 8,-76 1,-67 -2,-52 -2,-32 -2,-23 -1,-13 0,-2 Z"/>
  </g>
  <g id="bullet-char-template(10004)" transform="scale(0.00048828125,-0.00048828125)">
   <path d="M 285,-33 C 182,-33 111,30 74,156 52,228 41,333 41,471 41,549 55,616 82,672 116,743 169,778 240,778 293,778 328,747 346,684 L 369,508 C 377,444 397,411 428,410 L 1163,1116 C 1174,1127 1196,1133 1229,1133 1271,1133 1292,1118 1292,1087 L 1292,965 C 1292,929 1282,901 1262,881 L 442,47 C 390,-6 338,-33 285,-33 Z"/>
  </g>
  <g id="bullet-char-template(9679)" transform="scale(0.00048828125,-0.00048828125)">
   <path d="M 813,0 C 632,0 489,54 383,161 276,268 223,411 223,592 223,773 276,916 383,1023 489,1130 632,1184 813,1184 992,1184 1136,1130 1245,1023 1353,916 1407,772 1407,592 1407,412 1353,268 1245,161 1136,54 992,0 813,0 Z"/>
  </g>
  <g id="bullet-char-template(8226)" transform="scale(0.00048828125,-0.00048828125)">
   <path d="M 346,457 C 273,457 209,483 155,535 101,586 74,649 74,723 74,796 101,859 155,911 209,963 273,989 346,989 419,989 480,963 531,910 582,859 608,796 608,723 608,648 583,586 532,535 482,483 420,457 346,457 Z"/>
  </g>
  <g id="bullet-char-template(8211)" transform="scale(0.00048828125,-0.00048828125)">
   <path d="M -4,459 L 1135,459 1135,606 -4,606 -4,459 Z"/>
  </g>
 </defs>
 <defs class="TextEmbeddedBitmaps"/>
 <g>
  <g id="id2" class="Master_Slide">
   <g id="bg-id2" class="Background"/>
   <g id="bo-id2" class="BackgroundObjects"/>
  </g>
 </g>
 <g class="SlideGroup">
  <g>
   <g id="id1" class="Slide" clip-path="url(#presentation_clip_path)">
    <g class="Page">
     <g class="com.sun.star.drawing.OpenBezierShape">
      <g id="id3">
       <path fill="none" stroke="rgb(0,132,209)" stroke-width="152" stroke-linejoin="round" d="M 15240,12700 C 15299,12621 15358,12541 15416,12460"/>
       <path fill="none" stroke="rgb(0,132,209)" stroke-width="152" stroke-linejoin="round" d="M 15587,12214 C 15643,12132 15698,12048 15752,11964"/>
       <path fill="none" stroke="rgb(0,132,209)" stroke-width="152" stroke-linejoin="round" d="M 15909,11711 C 15961,11625 16011,11538 16061,11450"/>
       <path fill="none" stroke="rgb(0,132,209)" stroke-width="152" stroke-linejoin="round" d="M 16203,11190 C 16249,11103 16294,11014 16338,10924"/>
       <path fill="none" stroke="rgb(0,132,209)" stroke-width="152" stroke-linejoin="round" d="M 16468,10649 C 16508,10561 16548,10472 16586,10381"/>
       <path fill="none" stroke="rgb(0,132,209)" stroke-width="152" stroke-linejoin="round" d="M 16699,10103 C 16735,10009 16771,9914 16806,9818"/>
       <path fill="none" stroke="rgb(0,132,209)" stroke-width="152" stroke-linejoin="round" d="M 16902,9542 C 16933,9448 16963,9353 16993,9256"/>
       <path fill="none" stroke="rgb(0,132,209)" stroke-width="152" stroke-linejoin="round" d="M 17079,8961 C 17105,8869 17130,8776 17155,8681"/>
       <path fill="none" stroke="rgb(0,132,209)" stroke-width="152" stroke-linejoin="round" d="M 17226,8392 C 17249,8295 17272,8195 17293,8094"/>
       <path fill="none" stroke="rgb(0,132,209)" stroke-width="152" stroke-linejoin="round" d="M 17354,7801 C 17372,7707 17390,7611 17408,7514"/>
       <path fill="none" stroke="rgb(0,132,209)" stroke-width="152" stroke-linejoin="round" d="M 17458,7219 C 17474,7118 17490,7017 17505,6914"/>
       <path fill="none" stroke="rgb(0,132,209)" stroke-width="152" stroke-linejoin="round" d="M 17546,6622 C 17558,6526 17570,6430 17582,6332"/>
       <path fill="none" stroke="rgb(0,132,209)" stroke-width="152" stroke-linejoin="round" d="M 17616,6034 C 17626,5933 17636,5831 17646,5728"/>
       <path fill="none" stroke="rgb(0,132,209)" stroke-width="152" stroke-linejoin="round" d="M 17672,5428 C 17680,5332 17687,5236 17694,5139"/>
       <path fill="none" stroke="rgb(0,132,209)" stroke-width="152" stroke-linejoin="round" d="M 17714,4843 C 17720,4744 17726,4643 17731,4541"/>
       <path fill="none" stroke="rgb(0,132,209)" stroke-width="152" stroke-linejoin="round" d="M 17746,4231 C 17750,4134 17754,4035 17757,3936"/>
       <path fill="none" stroke="rgb(0,132,209)" stroke-width="152" stroke-linejoin="round" d="M 17766,3646 C 17768,3548 17771,3449 17773,3350"/>
       <path fill="none" stroke="rgb(0,132,209)" stroke-width="152" stroke-linejoin="round" d="M 17777,3047 C 17778,2945 17779,2842 17780,2738"/>
      </g>
     </g>
     <g class="com.sun.star.drawing.LineShape">
      <g id="id4">
       <path fill="none" stroke="rgb(0,0,0)" stroke-width="102" stroke-linejoin="round" d="M 2540,2540 L 2540,17780"/>
      </g>
     </g>
     <g class="com.sun.star.drawing.LineShape">
      <g id="id5">
       <path fill="none" stroke="rgb(0,0,0)" stroke-width="102" stroke-linejoin="round" d="M 25400,17780 L 2540,17780"/>
      </g>
     </g>
     <g class="com.sun.star.drawing.OpenBezierShape">
      <g id="id6">
       <path fill="none" stroke="rgb(0,132,209)" stroke-width="152" stroke-linejoin="round" d="M 2540,17780 C 12446,17018 15240,12700 15240,12700"/>
      </g>
     </g>
     <g class="com.sun.star.drawing.CustomShape">
      <g id="id7">
       <path fill="rgb(255,255,255)" stroke="none" d="M 2540,17526 C 2684,17526 2794,17636 2794,17780 2794,17924 2684,18034 2540,18034 2396,18034 2286,17924 2286,17780 2286,17636 2396,17526 2540,17526 Z M 2286,17526 L 2286,17526 Z M 2795,18035 L 2795,18035 Z"/>
       <path fill="none" stroke="rgb(0,0,0)" stroke-width="102" stroke-linejoin="round" d="M 2540,17526 C 2684,17526 2794,17636 2794,17780 2794,17924 2684,18034 2540,18034 2396,18034 2286,17924 2286,17780 2286,17636 2396,17526 2540,17526 Z"/>
      </g>
     </g>
     <g class="com.sun.star.drawing.CustomShape">
      <g id="id8">
       <path fill="rgb(255,255,255)" stroke="none" d="M 5110,17198 C 5254,17198 5364,17308 5364,17452 5364,17596 5254,17706 5110,17706 4966,17706 4856,17596 4856,17452 4856,17308 4966,17198 5110,17198 Z M 4856,17198 L 4856,17198 Z M 5365,17707 L 5365,17707 Z"/>
       <path fill="none" stroke="rgb(0,0,0)" stroke-width="102" stroke-linejoin="round" d="M 5110,17198 C 5254,17198 5364,17308 5364,17452 5364,17596 5254,17706 5110,17706 4966,17706 4856,17596 4856,17452 4856,17308 4966,17198 5110,17198 Z"/>
      </g>
     </g>
     <g class="com.sun.star.drawing.CustomShape">
      <g id="id9">
       <path fill="rgb(255,255,255)" stroke="none" d="M 15240,12500 C 15384,12500 15494,12610 15494,12754 15494,12898 15384,13008 15240,13008 15096,13008 14986,12898 14986,12754 14986,12610 15096,12500 15240,12500 Z M 14986,12500 L 14986,12500 Z M 15495,13009 L 15495,13009 Z"/>
       <path fill="none" stroke="rgb(0,0,0)" stroke-width="102" stroke-linejoin="round" d="M 15240,12500 C 15384,12500 15494,12610 15494,12754 15494,12898 15384,13008 15240,13008 15096,13008 14986,12898 14986,12754 14986,12610 15096,12500 15240,12500 Z"/>
      </g>
     </g>
     <g class="Group">
      <g class="com.sun.star.drawing.ClosedBezierShape">
       <g id="id10">
        <path fill="rgb(0,0,0)" stroke="none" d="M 3303,6249 C 3383,6249 3453,6265 3513,6296 3573,6327 3619,6372 3651,6429 3683,6486 3699,6552 3699,6627 L 3699,6917 2923,6917 2923,6661 C 2923,6529 2956,6428 3022,6356 3088,6285 3181,6249 3303,6249 Z M 3303,6355 C 3207,6355 3133,6381 3083,6434 3032,6487 3007,6563 3007,6663 L 3007,6812 3615,6812 3615,6639 C 3615,6582 3602,6532 3577,6489 3552,6446 3516,6413 3469,6390 3422,6367 3367,6355 3303,6355 Z"/>
       </g>
      </g>
      <g class="com.sun.star.drawing.ClosedBezierShape">
       <g id="id11">
        <path fill="rgb(0,0,0)" stroke="none" d="M 2976,6121 C 2945,6121 2913,6121 2882,6121 2882,6087 2882,6054 2882,6021 2913,6021 2945,6021 2976,6021 L 2976,6121 Z M 3699,6121 C 3500,6121 3302,6121 3103,6121 3103,6087 3103,6054 3103,6021 3302,6021 3500,6021 3699,6021 L 3699,6121 Z"/>
       </g>
      </g>
      <g class="com.sun.star.drawing.ClosedBezierShape">
       <g id="id12">
        <path fill="rgb(0,0,0)" stroke="none" d="M 3534,5422 C 3590,5422 3634,5443 3664,5485 3695,5528 3710,5587 3710,5664 3710,5738 3698,5795 3673,5835 3649,5875 3611,5901 3559,5914 L 3542,5826 C 3574,5818 3597,5800 3612,5774 3627,5747 3635,5711 3635,5664 3635,5613 3627,5576 3611,5553 3596,5530 3573,5518 3542,5518 3519,5518 3499,5526 3485,5542 3470,5559 3458,5585 3448,5621 L 3430,5692 C 3415,5749 3401,5789 3386,5813 3372,5837 3355,5856 3335,5870 3315,5883 3290,5890 3261,5890 3206,5890 3165,5871 3136,5832 3108,5793 3094,5737 3094,5662 3094,5597 3105,5544 3128,5506 3152,5467 3189,5443 3240,5432 L 3251,5521 C 3224,5527 3204,5542 3190,5566 3176,5590 3169,5622 3169,5662 3169,5707 3175,5740 3189,5762 3203,5783 3223,5794 3251,5794 3268,5794 3282,5789 3293,5780 3304,5772 3313,5758 3321,5741 3328,5724 3339,5688 3353,5632 3366,5580 3378,5542 3389,5519 3400,5496 3413,5477 3426,5464 3440,5450 3456,5440 3473,5433 3491,5425 3512,5422 3534,5422 Z"/>
       </g>
      </g>
      <g class="com.sun.star.drawing.ClosedBezierShape">
       <g id="id13">
        <path fill="rgb(0,0,0)" stroke="none" d="M 3695,5076 C 3703,5109 3708,5142 3708,5176 3708,5255 3663,5295 3573,5295 L 3175,5295 3175,5364 3103,5364 3103,5291 2970,5262 2970,5196 3103,5196 3103,5086 3175,5086 3175,5196 3551,5196 C 3580,5196 3600,5191 3612,5182 3623,5173 3629,5156 3629,5133 3629,5120 3626,5101 3621,5076 L 3695,5076 Z"/>
       </g>
      </g>
      <g class="com.sun.star.drawing.ClosedBezierShape">
       <g id="id14">
        <path fill="rgb(0,0,0)" stroke="none" d="M 3710,4840 C 3710,4900 3694,4945 3663,4975 3631,5005 3588,5020 3533,5020 3471,5020 3424,5000 3391,4959 3358,4919 3340,4853 3338,4763 L 3335,4629 3303,4629 C 3255,4629 3220,4639 3199,4660 3178,4680 3167,4713 3167,4757 3167,4801 3175,4834 3190,4854 3205,4874 3229,4886 3262,4890 L 3253,4994 C 3146,4977 3092,4897 3092,4755 3092,4680 3109,4623 3144,4586 3178,4548 3228,4529 3293,4529 L 3549,4529 C 3579,4529 3601,4525 3616,4517 3630,4510 3638,4495 3638,4473 3638,4464 3637,4453 3634,4441 L 3696,4441 C 3702,4466 3705,4491 3705,4517 3705,4554 3695,4581 3676,4597 3656,4614 3626,4624 3585,4626 L 3585,4629 C 3631,4654 3663,4684 3682,4717 3701,4751 3710,4792 3710,4840 Z M 3636,4817 C 3636,4781 3627,4749 3611,4720 3594,4692 3572,4670 3543,4654 3514,4637 3484,4629 3454,4629 L 3405,4629 3407,4738 C 3408,4784 3413,4820 3421,4844 3430,4868 3444,4886 3462,4899 3481,4912 3505,4918 3534,4918 3567,4918 3592,4909 3609,4892 3627,4875 3636,4850 3636,4817 Z"/>
       </g>
      </g>
      <g class="com.sun.star.drawing.ClosedBezierShape">
       <g id="id15">
        <path fill="rgb(0,0,0)" stroke="none" d="M 3699,3987 L 3321,3987 C 3282,3987 3251,3990 3230,3998 3208,4006 3192,4018 3183,4035 3173,4052 3169,4077 3169,4109 3169,4157 3185,4195 3218,4222 3250,4250 3296,4264 3354,4264 L 3699,4264 3699,4363 3230,4363 C 3161,4363 3118,4364 3103,4366 L 3103,4272 C 3105,4272 3110,4272 3118,4271 3126,4271 3135,4271 3146,4270 3156,4269 3176,4269 3205,4268 L 3205,4266 C 3164,4244 3135,4217 3118,4187 3101,4157 3092,4120 3092,4076 3092,4010 3108,3963 3141,3932 3173,3902 3227,3887 3302,3887 L 3699,3887 3699,3987 Z"/>
       </g>
      </g>
      <g class="com.sun.star.drawing.ClosedBezierShape">
       <g id="id16">
        <path fill="rgb(0,0,0)" stroke="none" d="M 3398,3662 C 3478,3662 3536,3649 3575,3624 3613,3599 3632,3561 3632,3511 3632,3476 3622,3446 3603,3423 3584,3399 3555,3384 3515,3379 L 3522,3279 C 3579,3286 3625,3311 3659,3352 3693,3393 3710,3445 3710,3508 3710,3592 3684,3655 3631,3699 3578,3743 3501,3765 3400,3765 3300,3765 3224,3743 3171,3699 3118,3655 3092,3592 3092,3510 3092,3449 3108,3398 3139,3358 3171,3318 3214,3292 3270,3282 L 3278,3384 C 3245,3389 3218,3402 3199,3423 3179,3444 3170,3474 3170,3512 3170,3565 3187,3603 3222,3626 3257,3650 3316,3662 3398,3662 Z"/>
       </g>
      </g>
      <g class="com.sun.star.drawing.ClosedBezierShape">
       <g id="id17">
        <path fill="rgb(0,0,0)" stroke="none" d="M 3422,3097 C 3490,3097 3543,3083 3580,3055 3617,3026 3636,2985 3636,2931 3636,2888 3627,2853 3610,2827 3593,2801 3571,2784 3544,2775 L 3569,2688 C 3663,2723 3710,2804 3710,2931 3710,3019 3684,3086 3631,3132 3579,3178 3501,3201 3397,3201 3299,3201 3223,3178 3171,3132 3118,3086 3092,3020 3092,2935 3092,2759 3198,2672 3409,2672 L 3422,2672 3422,3097 Z M 3346,2774 C 3283,2780 3237,2796 3209,2822 3180,2849 3165,2887 3165,2936 3165,2984 3181,3022 3213,3050 3246,3079 3290,3094 3346,3096 L 3346,2774 Z"/>
       </g>
      </g>
     </g>
     <g class="Group">
      <g class="com.sun.star.drawing.ClosedBezierShape">
       <g id="id18">
        <path fill="rgb(0,0,0)" stroke="none" d="M 22695,17401 C 22695,17142 22695,16884 22695,16625 22891,16625 23087,16625 23283,16625 23283,16654 23283,16682 23283,16711 23122,16711 22961,16711 22800,16711 22800,16794 22800,16877 22800,16960 22950,16960 23100,16960 23250,16960 23250,16988 23250,17016 23250,17045 23100,17045 22950,17045 22800,17045 22800,17135 22800,17225 22800,17315 22968,17315 23137,17315 23306,17315 23306,17344 23306,17372 23306,17401 L 22695,17401 Z"/>
       </g>
      </g>
      <g class="com.sun.star.drawing.ClosedBezierShape">
       <g id="id19">
        <path fill="rgb(0,0,0)" stroke="none" d="M 23553,16877 L 23553,17401 23454,17401 23454,16877 23370,16877 23370,16805 23454,16805 23454,16738 C 23454,16684 23466,16644 23489,16621 23513,16597 23550,16585 23599,16585 23627,16585 23650,16587 23669,16591 L 23669,16667 C 23653,16664 23638,16662 23625,16662 23600,16662 23581,16669 23570,16682 23559,16695 23553,16718 23553,16752 L 23553,16805 23669,16805 23669,16877 23553,16877 Z"/>
       </g>
      </g>
      <g class="com.sun.star.drawing.ClosedBezierShape">
       <g id="id20">
        <path fill="rgb(0,0,0)" stroke="none" d="M 23846,16877 L 23846,17401 23747,17401 23747,16877 23663,16877 23663,16805 23747,16805 23747,16738 C 23747,16684 23759,16644 23782,16621 23806,16597 23843,16585 23892,16585 23920,16585 23943,16587 23962,16591 L 23962,16667 C 23946,16664 23931,16662 23918,16662 23893,16662 23874,16669 23863,16682 23852,16695 23846,16718 23846,16752 L 23846,16805 23962,16805 23962,16877 23846,16877 Z"/>
       </g>
      </g>
      <g class="com.sun.star.drawing.ClosedBezierShape">
       <g id="id21">
        <path fill="rgb(0,0,0)" stroke="none" d="M 24540,17102 C 24540,17207 24517,17284 24471,17335 24425,17386 24359,17412 24271,17412 24184,17412 24118,17385 24074,17332 24030,17279 24007,17203 24007,17102 24007,16897 24096,16794 24274,16794 24366,16794 24433,16819 24476,16869 24518,16919 24540,16997 24540,17102 Z M 24436,17102 C 24436,17020 24424,16960 24399,16923 24375,16886 24334,16867 24276,16867 24218,16867 24176,16886 24150,16924 24124,16962 24111,17022 24111,17102 24111,17181 24124,17240 24150,17280 24175,17319 24215,17339 24270,17339 24330,17339 24372,17320 24398,17281 24423,17243 24436,17184 24436,17102 Z"/>
       </g>
      </g>
      <g class="com.sun.star.drawing.ClosedBezierShape">
       <g id="id22">
        <path fill="rgb(0,0,0)" stroke="none" d="M 24666,17401 L 24666,16944 C 24666,16902 24665,16856 24663,16805 L 24757,16805 C 24759,16873 24761,16913 24761,16927 L 24763,16927 C 24779,16876 24797,16841 24818,16822 24838,16803 24867,16794 24905,16794 24918,16794 24931,16796 24945,16800 L 24945,16890 C 24932,16887 24914,16885 24892,16885 24851,16885 24820,16903 24798,16938 24776,16974 24765,17024 24765,17090 L 24765,17401 24666,17401 Z"/>
       </g>
      </g>
      <g class="com.sun.star.drawing.ClosedBezierShape">
       <g id="id23">
        <path fill="rgb(0,0,0)" stroke="none" d="M 25268,17397 C 25235,17405 25202,17410 25168,17410 25089,17410 25049,17365 25049,17275 L 25049,16877 24980,16877 24980,16805 25053,16805 25082,16672 25148,16672 25148,16805 25258,16805 25258,16877 25148,16877 25148,17253 C 25148,17282 25153,17302 25162,17314 25171,17325 25188,17331 25211,17331 25224,17331 25243,17328 25268,17323 L 25268,17397 Z"/>
       </g>
      </g>
     </g>
    </g>
   </g>
  </g>
 </g>
</svg>