<?xml version="1.0" encoding="UTF-8"?>

<svg version="1.2" baseProfile="tiny" width="280mm" height="210mm" viewBox="0 0 28000 21000" preserveAspectRatio="xMidYMid" fill-rule="evenodd" clip-path="url(#presentation_clip_path)" stroke-width="28.222" stroke-linejoin="round" xmlns="http://www.w3.org/2000/svg" xmlns:ooo="http://xml.openoffice.org/svg/export" xmlns:xlink="http://www.w3.org/1999/xlink" xml:space="preserve">
 <defs class="ClipPathGroup">
  <clipPath id="presentation_clip_path" clipPathUnits="userSpaceOnUse">
   <rect x="0" y="0" width="28000" height="21000"/>
  </clipPath>
 </defs>
 <defs class="TextShapeIndex">
  <g ooo:slide="id1" ooo:id-list="id3 id4 id5 id6 id7 id8 id9 id10 id11 id12 id13 id14 id15 id16 id17 id18 id19 id20 id21 id22 id23 id24 id25 id26 id27 id28 id29 id30 id31 id32 id33 id34"/>
 </defs>
 <defs class="EmbeddedBulletChars">
  <g id="bullet-char-template(57356)" transform="scale(0.00048828125,-0.00048828125)">
   <path d="M 580,1141 L 1163,571 580,0 -4,571 580,1141 Z"/>
  </g>
  <g id="bullet-char-template(57354)" transform="scale(0.00048828125,-0.00048828125)">
   <path d="M 8,1128 L 1137,1128 1137,0 8,0 8,1128 Z"/>
  </g>
  <g id="bullet-char-template(10146)" transform="scale(0.00048828125,-0.00048828125)">
   <path d="M 174,0 L 602,739 174,1481 1456,739 174,0 Z M 1358,739 L 309,1346 659,739 1358,739 Z"/>
  </g>
  <g id="bullet-char-template(10132)" transform="scale(0.00048828125,-0.00048828125)">
   <path d="M 2015,739 L 1276,0 717,0 1260,543 174,543 174,936 1260,936 717,1481 1274,1481 2015,739 Z"/>
  </g>
  <g id="bullet-char-template(10007)" transform="scale(0.00048828125,-0.00048828125)">
   <path d="M 0,-2 C -7,14 -16,27 -25,37 L 356,567 C 262,823 215,952 215,954 215,979 228,992 255,992 264,992 276,990 289,987 310,991 331,999 354,1012 L 381,999 492,748 772,1049 836,1024 860,1049 C 881,1039 901,1025 922,1006 886,937 835,863 770,784 769,783 710,716 594,584 L 774,223 C 774,196 753,168 711,139 L 727,119 C 717,90 699,76 672,76 641,76 570,178 457,381 L 164,-76 C 142,-110 111,-127 72,-127 30,-127 9,-110 8,-76 1,-67 -2,-52 -2,-32 -2,-23 -1,-13 0,-2 Z"/>
  </g>
  <g id="bullet-char-template(10004)" transform="scale(0.00048828125,-0.00048828125)">
   <path d="M 285,-33 C 182,-33 111,30 74,156 52,228 41,333 41,471 41,549 55,616 82,672 116,743 169,778 240,778 293,778 328,747 346,684 L 369,508 C 377,444 397,411 428,410 L 1163,1116 C 1174,1127 1196,1133 1229,1133 1271,1133 1292,1118 1292,1087 L 1292,965 C 1292,929 1282,901 1262,881 L 442,47 C 390,-6 338,-33 285,-33 Z"/>
  </g>
  <g id="bullet-char-template(9679)" transform="scale(0.00048828125,-0.00048828125)">
   <path d="M 813,0 C 632,0 489,54 383,161 276,268 223,411 223,592 223,773 276,916 383,1023 489,1130 632,1184 813,1184 992,1184 1136,1130 1245,1023 1353,916 1407,772 1407,592 1407,412 1353,268 1245,161 1136,54 992,0 813,0 Z"/>
  </g>
  <g id="bullet-char-template(8226)" transform="scale(0.00048828125,-0.00048828125)">
   <path d="M 346,457 C 273,457 209,483 155,535 101,586 74,649 74,723 74,796 101,859 155,911 209,963 273,989 346,989 419,989 480,963 531,910 582,859 608,796 608,723 608,648 583,586 532,535 482,483 420,457 346,457 Z"/>
  </g>
  <g id="bullet-char-template(8211)" transform="scale(0.00048828125,-0.00048828125)">
   <path d="M -4,459 L 1135,459 1135,606 -4,606 -4,459 Z"/>
  </g>
 </defs>
 <defs class="TextEmbeddedBitmaps"/>
 <g>
  <g id="id2" class="Master_Slide">
   <g id="bg-id2" class="Background"/>
   <g id="bo-id2" class="BackgroundObjects"/>
  </g>
 </g>
 <g class="SlideGroup">
  <g>
   <g id="id1" class="Slide" clip-path="url(#presentation_clip_path)">
    <g class="Page">
     <g class="com.sun.star.drawing.PolyPolygonShape">
      <g id="id3">
       <path fill="rgb(0,0,0)" stroke="none" d="M 27,25 L 27,26 27,26 26,26 27,25 Z"/>
      </g>
     </g>
     <g class="com.sun.star.drawing.PolyPolygonShape">
      <g id="id4">
       <path fill="rgb(0,0,0)" stroke="none" d="M 26,25 L 27,25 27,26 26,26 26,25 Z"/>
      </g>
     </g>
     <g class="com.sun.star.drawing.PolyPolygonShape">
      <g id="id5">
       <path fill="rgb(0,0,0)" stroke="none" d="M 26,26 L 26,26 26,25 27,26 26,26 Z M 27,26 L 26,25 26,26 27,26 Z"/>
      </g>
     </g>
     <g class="com.sun.star.drawing.PolyPolygonShape">
      <g id="id6">
       <path fill="rgb(0,0,0)" stroke="none" d="M 28,26 L 27,26 27,26 27,26 26,26 26,26 27,26 27,25 27,25 28,26 Z"/>
      </g>
     </g>
     <g class="com.sun.star.drawing.PolyPolygonShape">
      <g id="id7">
       <path fill="rgb(0,0,0)" stroke="none" d="M 26,26 L 26,25 26,25 26,25 26,25 26,25 26,25 26,25 26,25 26,25 26,25 26,25 26,25 26,25 26,25 26,25 26,25 26,25 26,25 26,25 26,26 Z"/>
      </g>
     </g>
     <g class="com.sun.star.drawing.PolyPolygonShape">
      <g id="id8">
       <path fill="rgb(0,0,0)" stroke="none" d="M 26,26 L 26,26 26,26 26,25 26,25 26,25 26,26 26,26 27,25 27,25 27,25 27,25 27,25 26,26 Z"/>
      </g>
     </g>
     <g class="com.sun.star.drawing.ClosedBezierShape">
      <g id="id9">
       <path fill="rgb(0,0,0)" stroke="none" d="M 27,26 C 26,26 26,26 26,26 L 26,26 C 26,25 26,25 26,25 L 27,25 27,25 27,26 Z"/>
      </g>
     </g>
     <g class="com.sun.star.drawing.PolyPolygonShape">
      <g id="id10">
       <path fill="rgb(0,0,0)" stroke="none" d="M 26,26 L 26,26 Z"/>
      </g>
     </g>
     <g class="com.sun.star.drawing.PolyPolygonShape">
      <g id="id11">
       <path fill="rgb(0,0,0)" stroke="none" d="M 26,26 L 27,26 27,26 26,26 Z"/>
      </g>
     </g>
     <g class="com.sun.star.drawing.LineShape">
      <g id="id12">
       <path fill="none" stroke="rgb(0,0,0)" stroke-width="102" stroke-linejoin="round" d="M 2566,2566 L 2566,17806"/>
      </g>
     </g>
     <g class="com.sun.star.drawing.LineShape">
      <g id="id13">
       <path fill="none" stroke="rgb(0,0,0)" stroke-width="102" stroke-linejoin="round" d="M 25426,17806 L 2566,17806"/>
      </g>
     </g>
     <g class="com.sun.star.drawing.OpenBezierShape">
      <g id="id14">
       <path fill="none" stroke="rgb(0,132,209)" stroke-width="152" stroke-linejoin="round" d="M 2566,17807 C 12473,17045 15267,12726 15267,12726"/>
      </g>
     </g>
     <g class="com.sun.star.drawing.ClosedBezierShape">
      <g id="id15">
       <path fill="rgb(255,255,255)" stroke="none" d="M 2566,17552 C 2711,17552 2821,17662 2821,17806 2821,17951 2711,18061 2566,18061 2422,18061 2312,17951 2312,17806 2312,17662 2422,17552 2566,17552 Z M 2312,17552 L 2312,17552 Z M 2822,18062 L 2822,18062 Z"/>
      </g>
     </g>
     <g class="com.sun.star.drawing.ClosedBezierShape">
      <g id="id16">
       <path fill="none" stroke="rgb(0,0,0)" stroke-width="102" stroke-linejoin="round" d="M 2567,17552 C 2711,17552 2821,17662 2821,17807 2821,17951 2711,18061 2567,18061 2422,18061 2312,17951 2312,17807 2312,17662 2422,17552 2567,17552 Z"/>
      </g>
     </g>
     <g class="com.sun.star.drawing.ClosedBezierShape">
      <g id="id17">
       <path fill="rgb(255,255,255)" stroke="none" d="M 5136,17224 C 5281,17224 5391,17334 5391,17478 5391,17623 5281,17733 5136,17733 4992,17733 4882,17623 4882,17478 4882,17334 4992,17224 5136,17224 Z M 4882,17224 L 4882,17224 Z M 5392,17734 L 5392,17734 Z"/>
      </g>
     </g>
     <g class="com.sun.star.drawing.ClosedBezierShape">
      <g id="id18">
       <path fill="none" stroke="rgb(0,0,0)" stroke-width="102" stroke-linejoin="round" d="M 5136,17224 C 5281,17224 5391,17334 5391,17479 5391,17623 5281,17733 5136,17733 4992,17733 4882,17623 4882,17479 4882,17334 4992,17224 5136,17224 Z"/>
      </g>
     </g>
     <g class="com.sun.star.drawing.ClosedBezierShape">
      <g id="id19">
       <path fill="rgb(255,255,255)" stroke="none" d="M 15266,12526 C 15411,12526 15521,12636 15521,12780 15521,12925 15411,13035 15266,13035 15122,13035 15012,12925 15012,12780 15012,12636 15122,12526 15266,12526 Z M 15012,12526 L 15012,12526 Z M 15522,13036 L 15522,13036 Z"/>
      </g>
     </g>
     <g class="com.sun.star.drawing.ClosedBezierShape">
      <g id="id20">
       <path fill="none" stroke="rgb(0,0,0)" stroke-width="102" stroke-linejoin="round" d="M 15266,12526 C 15411,12526 15521,12636 15521,12781 15521,12925 15411,13035 15266,13035 15122,13035 15012,12925 15012,12781 15012,12636 15122,12526 15266,12526 Z"/>
      </g>
     </g>
     <g class="Group">
      <g class="com.sun.star.drawing.ClosedBezierShape">
       <g id="id21">
        <path fill="rgb(0,0,0)" stroke="none" d="M 3727,5400 C 3468,5400 3210,5400 2951,5400 2951,5204 2951,5008 2951,4812 2980,4812 3008,4812 3037,4812 3037,4973 3037,5134 3037,5295 3120,5295 3203,5295 3286,5295 3286,5145 3286,4995 3286,4845 3314,4845 3342,4845 3371,4845 3371,4995 3371,5145 3371,5295 3461,5295 3551,5295 3641,5295 3641,5127 3641,4958 3641,4789 3670,4789 3698,4789 3727,4789 L 3727,5400 Z"/>
       </g>
      </g>
      <g class="com.sun.star.drawing.ClosedBezierShape">
       <g id="id22">
        <path fill="rgb(0,0,0)" stroke="none" d="M 3203,4542 L 3727,4542 3727,4641 3203,4641 3203,4725 3131,4725 3131,4641 3064,4641 C 3010,4641 2970,4629 2947,4606 2923,4582 2911,4545 2911,4496 2911,4468 2913,4445 2917,4426 L 2993,4426 C 2990,4442 2988,4457 2988,4470 2988,4495 2995,4514 3008,4525 3021,4536 3044,4542 3078,4542 L 3131,4542 3131,4426 3203,4426 3203,4542 Z"/>
       </g>
      </g>
      <g class="com.sun.star.drawing.ClosedBezierShape">
       <g id="id23">
        <path fill="rgb(0,0,0)" stroke="none" d="M 3203,4249 L 3727,4249 3727,4348 3203,4348 3203,4432 3131,4432 3131,4348 3064,4348 C 3010,4348 2970,4336 2947,4313 2923,4289 2911,4252 2911,4203 2911,4175 2913,4152 2917,4133 L 2993,4133 C 2990,4149 2988,4164 2988,4177 2988,4202 2995,4221 3008,4232 3021,4243 3044,4249 3078,4249 L 3131,4249 3131,4133 3203,4133 3203,4249 Z"/>
       </g>
      </g>
      <g class="com.sun.star.drawing.ClosedBezierShape">
       <g id="id24">
        <path fill="rgb(0,0,0)" stroke="none" d="M 3428,3555 C 3533,3555 3610,3578 3661,3624 3712,3670 3738,3736 3738,3824 3738,3911 3711,3977 3658,4021 3605,4065 3529,4088 3428,4088 3223,4088 3120,3999 3120,3821 3120,3729 3145,3662 3195,3619 3245,3577 3323,3555 3428,3555 Z M 3428,3659 C 3346,3659 3286,3671 3249,3696 3212,3720 3193,3761 3193,3819 3193,3877 3212,3919 3250,3945 3288,3971 3348,3984 3428,3984 3507,3984 3566,3971 3606,3945 3645,3920 3665,3880 3665,3825 3665,3765 3646,3723 3607,3697 3569,3672 3510,3659 3428,3659 Z"/>
       </g>
      </g>
      <g class="com.sun.star.drawing.ClosedBezierShape">
       <g id="id25">
        <path fill="rgb(0,0,0)" stroke="none" d="M 3727,3429 L 3270,3429 C 3228,3429 3182,3430 3131,3432 L 3131,3338 C 3199,3336 3239,3334 3253,3334 L 3253,3332 C 3202,3316 3167,3298 3148,3277 3129,3257 3120,3228 3120,3190 3120,3177 3122,3164 3126,3150 L 3216,3150 C 3213,3163 3211,3181 3211,3203 3211,3244 3229,3275 3264,3297 3300,3319 3350,3330 3416,3330 L 3727,3330 3727,3429 Z"/>
       </g>
      </g>
      <g class="com.sun.star.drawing.ClosedBezierShape">
       <g id="id26">
        <path fill="rgb(0,0,0)" stroke="none" d="M 3723,2827 C 3731,2860 3736,2893 3736,2927 3736,3006 3691,3046 3601,3046 L 3203,3046 3203,3115 3131,3115 3131,3042 2998,3013 2998,2947 3131,2947 3131,2837 3203,2837 3203,2947 3579,2947 C 3608,2947 3628,2942 3640,2933 3651,2924 3657,2907 3657,2884 3657,2871 3654,2852 3649,2827 L 3723,2827 Z"/>
       </g>
      </g>
     </g>
     <g class="Group">
      <g class="com.sun.star.drawing.ClosedBezierShape">
       <g id="id27">
        <path fill="rgb(0,0,0)" stroke="none" d="M 21611,17031 C 21611,17111 21595,17181 21564,17241 21533,17301 21488,17347 21431,17379 21374,17411 21308,17427 21233,17427 L 20943,17427 20943,16651 21199,16651 C 21331,16651 21432,16684 21504,16750 21575,16816 21611,16909 21611,17031 Z M 21505,17031 C 21505,16935 21479,16861 21426,16811 21373,16760 21297,16735 21197,16735 L 21048,16735 21048,17343 21221,17343 C 21278,17343 21328,17330 21371,17305 21414,17280 21447,17244 21470,17197 21493,17150 21505,17095 21505,17031 Z"/>
       </g>
      </g>
      <g class="com.sun.star.drawing.ClosedBezierShape">
       <g id="id28">
        <path fill="rgb(0,0,0)" stroke="none" d="M 21739,16704 C 21739,16673 21739,16641 21739,16610 21773,16610 21806,16610 21839,16610 21839,16641 21839,16673 21839,16704 L 21739,16704 Z M 21739,17427 C 21739,17228 21739,17030 21739,16831 21773,16831 21806,16831 21839,16831 21839,17030 21839,17228 21839,17427 L 21739,17427 Z"/>
       </g>
      </g>
      <g class="com.sun.star.drawing.ClosedBezierShape">
       <g id="id29">
        <path fill="rgb(0,0,0)" stroke="none" d="M 22438,17262 C 22438,17318 22417,17362 22375,17392 22332,17423 22273,17438 22196,17438 22122,17438 22065,17426 22025,17401 21985,17377 21959,17339 21946,17287 L 22034,17270 C 22042,17302 22060,17325 22086,17340 22113,17355 22149,17363 22196,17363 22247,17363 22284,17355 22307,17339 22330,17324 22342,17301 22342,17270 22342,17247 22334,17227 22318,17213 22301,17198 22275,17186 22239,17176 L 22168,17158 C 22111,17143 22071,17129 22047,17114 22023,17100 22004,17083 21990,17063 21977,17043 21970,17018 21970,16989 21970,16934 21989,16893 22028,16864 22067,16836 22123,16822 22198,16822 22263,16822 22316,16833 22354,16856 22393,16880 22417,16917 22428,16968 L 22339,16979 C 22333,16952 22318,16932 22294,16918 22270,16904 22238,16897 22198,16897 22153,16897 22120,16903 22098,16917 22077,16931 22066,16951 22066,16979 22066,16996 22071,17010 22080,17021 22088,17032 22102,17041 22119,17049 22136,17056 22172,17067 22228,17081 22280,17094 22318,17106 22341,17117 22364,17128 22383,17141 22396,17154 22410,17168 22420,17184 22427,17201 22435,17219 22438,17240 22438,17262 Z"/>
       </g>
      </g>
      <g class="com.sun.star.drawing.ClosedBezierShape">
       <g id="id30">
        <path fill="rgb(0,0,0)" stroke="none" d="M 22784,17423 C 22751,17431 22718,17436 22684,17436 22605,17436 22565,17391 22565,17301 L 22565,16903 22496,16903 22496,16831 22569,16831 22598,16698 22664,16698 22664,16831 22774,16831 22774,16903 22664,16903 22664,17279 C 22664,17308 22669,17328 22678,17340 22687,17351 22704,17357 22727,17357 22740,17357 22759,17354 22784,17349 L 22784,17423 Z"/>
       </g>
      </g>
      <g class="com.sun.star.drawing.ClosedBezierShape">
       <g id="id31">
        <path fill="rgb(0,0,0)" stroke="none" d="M 23020,17438 C 22960,17438 22915,17422 22885,17391 22855,17359 22840,17316 22840,17261 22840,17199 22860,17152 22901,17119 22941,17086 23007,17068 23097,17066 L 23231,17063 23231,17031 C 23231,16983 23221,16948 23200,16927 23180,16906 23147,16895 23103,16895 23059,16895 23026,16903 23006,16918 22986,16933 22974,16957 22970,16990 L 22866,16981 C 22883,16874 22963,16820 23105,16820 23180,16820 23237,16837 23274,16872 23312,16906 23331,16956 23331,17021 L 23331,17277 C 23331,17307 23335,17329 23343,17344 23350,17358 23365,17366 23387,17366 23396,17366 23407,17365 23419,17362 L 23419,17424 C 23394,17430 23369,17433 23343,17433 23306,17433 23279,17423 23263,17404 23246,17384 23236,17354 23234,17313 L 23231,17313 C 23206,17359 23176,17391 23143,17410 23109,17429 23068,17438 23020,17438 Z M 23043,17364 C 23079,17364 23111,17355 23140,17339 23168,17322 23190,17300 23206,17271 23223,17242 23231,17212 23231,17182 L 23231,17133 23122,17135 C 23076,17136 23040,17141 23016,17149 22992,17158 22974,17172 22961,17190 22948,17209 22942,17233 22942,17262 22942,17295 22951,17320 22968,17337 22985,17355 23010,17364 23043,17364 Z"/>
       </g>
      </g>
      <g class="com.sun.star.drawing.ClosedBezierShape">
       <g id="id32">
        <path fill="rgb(0,0,0)" stroke="none" d="M 23873,17427 L 23873,17049 C 23873,17010 23870,16979 23862,16958 23854,16936 23842,16920 23825,16911 23808,16901 23783,16897 23751,16897 23703,16897 23665,16913 23638,16946 23610,16978 23596,17024 23596,17082 L 23596,17427 23497,17427 23497,16958 C 23497,16889 23496,16846 23494,16831 L 23588,16831 C 23588,16833 23588,16838 23589,16846 23589,16854 23589,16863 23590,16874 23591,16884 23591,16904 23592,16933 L 23594,16933 C 23616,16892 23643,16863 23673,16846 23703,16829 23740,16820 23784,16820 23850,16820 23897,16836 23928,16869 23958,16901 23973,16955 23973,17030 L 23973,17427 23873,17427 Z"/>
       </g>
      </g>
      <g class="com.sun.star.drawing.ClosedBezierShape">
       <g id="id33">
        <path fill="rgb(0,0,0)" stroke="none" d="M 24198,17126 C 24198,17206 24211,17264 24236,17303 24261,17341 24299,17360 24349,17360 24384,17360 24414,17350 24437,17331 24461,17312 24476,17283 24481,17243 L 24581,17250 C 24574,17307 24549,17353 24508,17387 24467,17421 24415,17438 24352,17438 24268,17438 24205,17412 24161,17359 24117,17306 24095,17229 24095,17128 24095,17028 24117,16952 24161,16899 24205,16846 24268,16820 24350,16820 24411,16820 24462,16836 24502,16867 24542,16899 24568,16942 24578,16998 L 24476,17006 C 24471,16973 24458,16946 24437,16927 24416,16907 24386,16898 24348,16898 24295,16898 24257,16915 24234,16950 24210,16985 24198,17044 24198,17126 Z"/>
       </g>
      </g>
      <g class="com.sun.star.drawing.ClosedBezierShape">
       <g id="id34">
        <path fill="rgb(0,0,0)" stroke="none" d="M 24763,17150 C 24763,17218 24777,17271 24805,17308 24834,17345 24875,17364 24929,17364 24972,17364 25007,17355 25033,17338 25059,17321 25076,17299 25085,17272 L 25172,17297 C 25137,17391 25056,17438 24929,17438 24841,17438 24774,17412 24728,17359 24682,17307 24659,17229 24659,17125 24659,17027 24682,16951 24728,16899 24774,16846 24840,16820 24925,16820 25101,16820 25188,16926 25188,17137 L 25188,17150 24763,17150 Z M 25086,17074 C 25080,17011 25064,16965 25038,16937 25011,16908 24973,16893 24924,16893 24876,16893 24838,16909 24810,16941 24781,16974 24766,17018 24764,17074 L 25086,17074 Z"/>
       </g>
      </g>
     </g>
    </g>
   </g>
  </g>
 </g>
</svg>