<?xml version="1.0" encoding="UTF-8" standalone="no"?>
<!-- Created with Inkscape (http://www.inkscape.org/) -->

<svg
   xmlns:dc="http://purl.org/dc/elements/1.1/"
   xmlns:cc="http://creativecommons.org/ns#"
   xmlns:rdf="http://www.w3.org/1999/02/22-rdf-syntax-ns#"
   xmlns:svg="http://www.w3.org/2000/svg"
   xmlns="http://www.w3.org/2000/svg"
   xmlns:xlink="http://www.w3.org/1999/xlink"
   xmlns:sodipodi="http://sodipodi.sourceforge.net/DTD/sodipodi-0.dtd"
   xmlns:inkscape="http://www.inkscape.org/namespaces/inkscape"
   width="734.82251"
   height="947.38312"
   id="svg3120"
   version="1.1"
   inkscape:version="0.48.5 r10040"
   sodipodi:docname="rails-logo.svg"
   style="display:inline">
  <defs
     id="defs3122">
    <linearGradient
       id="linearGradient3949">
      <stop
         style="stop-color:#ffffff;stop-opacity:1;"
         offset="0"
         id="stop3951" />
      <stop
         style="stop-color:#c0815e;stop-opacity:1;"
         offset="1"
         id="stop3953" />
    </linearGradient>
    <linearGradient
       id="linearGradient3938">
      <stop
         style="stop-color:#ffffff;stop-opacity:1;"
         offset="0"
         id="stop3940" />
      <stop
         style="stop-color:#a94436;stop-opacity:1;"
         offset="1"
         id="stop3942" />
    </linearGradient>
    <radialGradient
       inkscape:collect="always"
       xlink:href="#linearGradient3938"
       id="radialGradient3944"
       cx="346.78635"
       cy="514.24542"
       fx="346.78635"
       fy="514.24542"
       r="48.528633"
       gradientTransform="matrix(6,0,0,9.4901958,-1372.6102,-4743.4998)"
       gradientUnits="userSpaceOnUse" />
    <linearGradient
       inkscape:collect="always"
       xlink:href="#linearGradient3949"
       id="linearGradient3955"
       x1="366.08591"
       y1="502.28729"
       x2="394.53085"
       y2="487.38861"
       gradientUnits="userSpaceOnUse"
       gradientTransform="matrix(6,0,0,6,-1372.6102,-2948.6824)" />
  </defs>
  <sodipodi:namedview
     id="base"
     pagecolor="#ffffff"
     bordercolor="#666666"
     borderopacity="1.0"
     inkscape:pageopacity="0.0"
     inkscape:pageshadow="2"
     inkscape:zoom="0.68755196"
     inkscape:cx="67.075039"
     inkscape:cy="521.21227"
     inkscape:document-units="px"
     inkscape:current-layer="layer1"
     showgrid="false"
     inkscape:window-width="1916"
     inkscape:window-height="856"
     inkscape:window-x="50"
     inkscape:window-y="0"
     inkscape:window-maximized="0"
     fit-margin-top="10"
     fit-margin-left="10"
     fit-margin-right="8"
     fit-margin-bottom="10" />
  <metadata
     id="metadata3125">
    <rdf:RDF>
      <cc:Work
         rdf:about="">
        <dc:format>image/svg+xml</dc:format>
        <dc:type
           rdf:resource="http://purl.org/dc/dcmitype/StillImage" />
        <dc:title />
      </cc:Work>
    </rdf:RDF>
  </metadata>
  <g
     inkscape:label="Red1"
     inkscape:groupmode="layer"
     id="layer1"
     style="display:inline"
     transform="translate(-267.447,333.95508)">
    <path
       style="fill:#a62c39;fill-opacity:1;stroke:none"
       d="m 278.79071,601.39378 c 0,0 1.42614,-223.93391 1.42614,-451.5774 0,-440.93003 -37.1535,-473.77146 160.68516,-473.77146 197.83866,0 550.67286,0 550.67286,0 0,0 0,426.63522 0,636.00084 0,209.36568 39.13613,291.38226 -180.88848,291.38226 -220.02462,0 -531.89568,-2.03424 -531.89568,-2.03424 z"
       id="path3907"
       inkscape:connector-curvature="0"
       sodipodi:nodetypes="cszcszc" />
  </g>
  <g
     inkscape:groupmode="layer"
     id="layer4"
     inkscape:label="Red2"
     transform="translate(-267.447,333.95508)">
    <path
       style="fill:url(#linearGradient3955);fill-opacity:1;stroke:none"
       d="m 732.80831,-240.7736 c 0,0 35.28636,7.05727 65.86788,58.81057 30.58146,51.7533 192.89868,454.01766 192.89868,454.01766 l 0,-326.9868 -150.55506,-244.65199 42.34356,51.7533 79.9824,-65.86788 -103.5066,-7.05726 z"
       id="path3947"
       inkscape:connector-curvature="0" />
  </g>
  <g
     inkscape:groupmode="layer"
     id="layer3"
     inkscape:label="Red3"
     transform="translate(-267.447,333.95508)">
    <path
       style="opacity:0.66822426;fill:url(#radialGradient3944);fill-opacity:1;stroke:none;display:inline"
       d="m 419.93609,-318.40357 c 0,0 232.88988,155.25996 345.80616,185.84141 112.91628,30.58153 230.53746,63.51546 230.53746,63.51546 l -268.17624,658.67839 115.26876,4.70484 150.55506,-371.68278 -4.70484,-543.40974 z"
       id="path3934"
       inkscape:connector-curvature="0" />
    <path
       style="fill:#ffffff;fill-opacity:0.43961355;stroke:none"
       d="m 636.35897,375.56123 242.265,233.00604 -451.63062,-9.5259 c 0,0 -14.11452,-143.4978 -9.40968,-218.7753 4.70484,-75.27756 28.2291,-75.27756 28.2291,-75.27756 z"
       id="path3960"
       inkscape:connector-curvature="0"
       sodipodi:nodetypes="cccscc" />
  </g>
  <g
     inkscape:groupmode="layer"
     id="layer5"
     inkscape:label="Red4"
     style="display:inline"
     transform="translate(-267.447,333.95508)">
    <path
       style="fill:#000000;fill-opacity:0.36231887;stroke:none"
       d="M 859.83917,603.7462 641.06381,377.91364 441.10787,302.63608 285.84797,-43.17008 l 164.66964,-275.23349 -110.56392,-4.70484 -44.69604,42.34362 -16.46694,32.93393 -11.7621,856.2819 z"
       id="path3958"
       inkscape:connector-curvature="0"
       sodipodi:nodetypes="cccccccccc" />
    <path
       style="opacity:0.5;fill:#83222d;fill-opacity:1;stroke:none;display:inline"
       d="m 993.92729,243.82553 c 0,0 -221.12778,70.57266 -352.86348,136.44054 -131.73564,65.86782 -202.30836,225.83256 -202.30836,225.83256 0,0 282.29076,-14.11453 388.14978,-9.40968 105.85902,4.70484 155.25996,4.70484 164.66964,-143.4978 9.40973,-148.20264 2.35242,-209.36562 2.35242,-209.36562 z"
       id="path3962"
       inkscape:connector-curvature="0" />
  </g>
  <g
     inkscape:groupmode="layer"
     id="layer7"
     inkscape:label="RAILS"
     transform="translate(-267.447,333.95508)">
    <path
       style="fill:#ffffff;stroke:none"
       d="m 346.95233,384.31763 0,138.9375 35.4375,0 0,-36.1875 32.25,32.25 54.375,0 -43.125,-43.125 c 0,0 31.02522,-0.501 33.375,-45.375 0,-41.16738 -31.06302,-46.5 -66.9375,-46.5 l -45.375,0 z m 37.125,37.6875 30.5625,0 0,24.75 -30.5625,0 0,-24.75 z"
       id="path3993"
       inkscape:connector-curvature="0" />
    <path
       style="fill:#ffffff;stroke:none"
       d="m 537.45233,384.88013 c -19.40226,-0.1092 -46.3125,1.68948 -46.3125,38.25 l 0,96.5625 36.375,0 0,-23.625 35.25,0 0,23.0625 36.5625,0 0,-101.25 c 0,-31.7577 -35.28306,-33 -54.1875,-33 -2.36304,0 -4.91574,0.018 -7.6875,0 z m -9.375,34.875 34.125,0 0,38.0625 -34.125,0 0,-38.0625 z"
       id="path3997"
       inkscape:connector-curvature="0" />
    <rect
       style="fill:#ffffff;fill-opacity:1;stroke:none"
       id="rect4001"
       width="37.638763"
       height="132.9119"
       x="635.77081"
       y="384.97095" />
    <path
       style="fill:#ffffff;stroke:none"
       d="m 712.81271,386.7352 0,132.91189 90.56832,0 0,-35.2863 -53.5176,0 0,-98.2137 z"
       id="path4003"
       inkscape:connector-curvature="0" />
    <path
       style="fill:#ffffff;stroke:none"
       d="m 923.35457,385.55897 0,35.87448 -60.57486,0 0,12.93833 c 0,0 12.35022,0 25.87662,0 13.52646,0 41.7555,-0.58799 41.7555,41.75551 0,42.34362 -19.40748,44.69603 -58.81056,44.69603 -39.40308,0 -47.63652,0 -47.63652,0 l 0,-32.34582 c 0,0 38.22684,0 54.69378,0 16.467,0 17.37516,-5.36046 17.37516,-10.03152 0,-4.67112 -8.41914,-6.84383 -25.5414,-6.84383 -17.12226,0 -48.88002,-8.4132 -48.88002,-41.34715 0,-32.93388 16.467,-45.2841 49.40094,-45.2841 32.93388,0 52.34136,0.588 52.34136,0.588 z"
       id="path4005"
       inkscape:connector-curvature="0"
       sodipodi:nodetypes="ccccsssccsssssc" />
  </g>
  <g
     inkscape:groupmode="layer"
     id="layer6"
     inkscape:label="Logo (white part)"
     style="display:inline"
     transform="translate(-267.447,333.95508)">
    <path
       style="fill:#ffffff;stroke:none"
       d="m 379.94489,344.97971 312.87228,0 c 0,0 -69.39648,-157.61232 -51.75336,-302.28636 17.64318,-144.67398 131.7357,-210.54187 196.42734,-217.59913 64.69164,-7.05726 99.978,32.93395 99.978,32.93395 l 14.11452,-21.17179 c 0,0 -92.92074,-94.09692 -210.54186,-83.51106 -117.62112,10.58592 -198.77976,88.2159 -249.35682,182.31282 -50.57712,94.09692 -79.9824,159.96474 -99.978,258.7665 -19.9956,98.80176 -11.7621,150.55506 -11.7621,150.55506 z"
       id="path3966"
       inkscape:connector-curvature="0"
       sodipodi:nodetypes="ccssccsszc" />
    <path
       style="fill:#ffffff;stroke:none"
       d="m 317.60567,187.36739 61.16304,4.70484 -10.58592,61.16298 -57.63438,-7.05726 z"
       id="path3968"
       inkscape:connector-curvature="0" />
    <path
       style="fill:#ffffff;stroke:none"
       d="m 414.05501,57.9841 16.467,-45.87221 -54.10572,-21.17184 -17.64318,49.40087 z"
       id="path3970"
       inkscape:connector-curvature="0" />
    <path
       style="fill:#ffffff;stroke:none"
       d="m 490.50875,-99.62822 31.75776,-37.63877 -41.16744,-27.05286 -32.93388,36.46254 z"
       id="path3972"
       inkscape:connector-curvature="0" />
    <path
       style="fill:#ffffff;stroke:none"
       d="m 574.01981,-245.47843 28.22904,34.11012 38.81496,-22.34802 -28.22904,-31.7577 z"
       id="path3974"
       inkscape:connector-curvature="0" />
    <path
       style="fill:#ffffff;stroke:none"
       d="m 711.63653,-284.29339 7.05726,34.11012 48.2247,-1.17624 -4.7049,-30.58146 z"
       id="path3976"
       inkscape:connector-curvature="0" />
    <path
       style="fill:#ffffff;stroke:none"
       d="m 875.12993,-247.83085 -1.17624,21.17178 32.93394,17.64318 7.05726,-10.58592 z"
       id="path3978"
       inkscape:connector-curvature="0" />
    <path
       style="fill:#ffffff;stroke:none"
       d="m 868.07267,-157.26259 0,17.64318 31.7577,3.52866 0,-14.11459 z"
       id="path3980"
       inkscape:connector-curvature="0" />
    <path
       style="fill:#ffffff;stroke:none"
       d="m 766.91849,-141.97183 15.2907,28.2291 22.34802,-17.64318 -4.70484,-18.81942 z"
       id="path3982"
       inkscape:connector-curvature="0" />
    <path
       style="fill:#ffffff;stroke:none"
       d="m 718.69379,-105.50929 23.52426,35.28636 -14.11458,24.70044 -34.11012,-37.63878 z"
       id="path3984"
       inkscape:connector-curvature="0" />
    <path
       style="fill:#ffffff;stroke:none"
       d="m 671.64533,-7.88371 -15.29076,30.58145 39.9912,34.11018 9.40968,-38.81502 z"
       id="path3986"
       inkscape:connector-curvature="0" />
    <path
       style="fill:#ffffff;stroke:none"
       d="m 655.17839,99.15148 -2.35242,41.16745 49.40088,21.17177 -2.35242,-38.81496 z"
       id="path3988"
       inkscape:connector-curvature="0" />
    <path
       style="fill:#ffffff;stroke:none"
       d="m 669.29291,245.00171 11.7621,42.34361 62.33922,3.52867 -22.34802,-45.87228 z"
       id="path3990"
       inkscape:connector-curvature="0" />
  </g>
  <g
     id="g3911"
     inkscape:groupmode="layer"
     inkscape:label="Red.border"
     style="display:inline"
     transform="translate(-267.447,333.95508)">
    <path
       sodipodi:nodetypes="cszcszc"
       inkscape:connector-curvature="0"
       id="path3913"
       d="m 278.79071,601.39378 c 0,0 1.42614,-223.93391 1.42614,-451.5774 0,-440.93003 -37.1535,-473.77146 160.68516,-473.77146 197.83866,0 550.67286,0 550.67286,0 0,0 0,426.63522 0,636.00084 0,209.36568 29.72643,291.38226 -180.88848,291.38226 -210.61488,0 -531.89568,-2.03424 -531.89568,-2.03424 z"
       style="fill:none;stroke:#5e000e;stroke-width:18;stroke-linecap:butt;stroke-linejoin:miter;stroke-miterlimit:4;stroke-opacity:1;stroke-dasharray:none" />
  </g>
</svg>
